<?xml version="1.0" encoding="UTF-8" standalone="no"?>
<svg xmlns="http://www.w3.org/2000/svg" xmlns:xlink="http://www.w3.org/1999/xlink" version="1.1" width="159.19649" height="73.379616" viewBox="0 0 159.19649 73.379615">
<defs>
<radialGradient fx="0" fy="0" cx="0" cy="0" r="1" gradientUnits="userSpaceOnUse" gradientTransform="matrix(-413.91632,-667.30322,-527.8869,523.23267,414.70787,596.28305)" spreadMethod="pad" id="radialGradient30"><stop style="stop-opacity:1;stop-color:#ddecd2" offset="0"/><stop style="stop-opacity:1;stop-color:#ddecd2" offset="0.00549316"/><stop style="stop-opacity:1;stop-color:#ffffff" offset="1"/></radialGradient>
<linearGradient x1="0" y1="0" x2="1" y2="0" gradientUnits="userSpaceOnUse" gradientTransform="matrix(0,-7.3768616,-7.3768616,0,340.00771,33.769897)" spreadMethod="pad" id="linearGradient678"><stop style="stop-opacity:1;stop-color:#e6e7e8" offset="0"/><stop style="stop-opacity:1;stop-color:#d1d3d4" offset="0.109085"/><stop style="stop-opacity:1;stop-color:#d1d3d4" offset="0.41905815"/><stop style="stop-opacity:1;stop-color:#808285" offset="1"/></linearGradient>
</defs>
<g transform="matrix(1.3333333,0,0,-1.3333333,-369.79864,212.00373)">
<g>
<g><g><g transform="translate(289.1735,129.3402)"><path style="fill:#00aeef;fill-opacity:1;fill-rule:nonzero;stroke:none" d="M 0,0 C 1.369,-7.768 19.505,-11.607 42.579,-7.541 65.655,-3.472 80.722,4.854 78.932,14.68 77.517,22.44 60.855,24.651 37.621,21.434 14.411,18.221 -1.372,7.769 0,0 M -5.036,-2.133 C -7.593,11.087 20.318,20.232 43.527,23.444 66.765,26.66 85.33,22.612 86.744,14.849 88.537,5.027 68.413,-3.999 49.871,-8.158 27.009,-13.287 -3.156,-11.873 -5.036,-2.133"/></g></g></g>
<g><g><g transform="translate(370.6268,141.8146)"><path style="fill:#a1c3e2;fill-opacity:1;fill-rule:nonzero;stroke:none" d="M 0,0 1.475,0.547 H 3.543 L 3.071,-0.13 Z m -1.421,4.039 1.324,0.769 H 6.428 L 5.447,4.014 Z m 8.787,0 1.526,0.719 h 6.982 L 14.732,4.014 Z m -3.8,-21.51 2.342,0.59 -22.791,19.961 -1.991,-0.885 z m -32.461,18.983 2.031,0.872 h 6.652 l -1.981,-0.872 z m -16.754,0 2.09,0.872 h 13.732 l -1.965,-0.872 z m -13.237,-6.97 2.408,0.512 -11.53,9.779 -1.983,-0.875 z m -20.977,9.414 2.076,0.877 h 9.78 l -1.967,-0.875 z m 24.532,-2.443 2.1,0.862 6.634,0.009 -1.938,-0.874 z M -9.862,0.11 c 0,-1.347 1.103,-2.436 2.468,-2.436 1.362,0 2.466,1.089 2.466,2.436 0,1.347 -1.104,2.437 -2.466,2.437 -1.365,0 -2.468,-1.09 -2.468,-2.437 m -2.613,0.068 c 0,2.591 2.478,4.736 5.104,4.736 2.621,0 4.747,-2.101 4.747,-4.693 0,-2.59 -2.126,-4.691 -4.747,-4.691 -2.626,0 -5.104,2.057 -5.104,4.648"/></g>
<g transform="translate(361.1666,143.2427)"><path style="fill:#00aeef;fill-opacity:1;fill-rule:nonzero;stroke:none" d="M 0,0 C 0,0 -1.015,-1.728 0.309,-2.991 1.536,-4.165 3.062,-3.556 3.492,-3.344 3.92,-3.133 2.755,-4.892 2.755,-4.892 l -4.002,0.122 -0.583,3.954 z m 14.885,2.569 0.998,0.816 c 0,0 1.177,0.003 0.809,-2.516 -0.37,-2.482 -3.856,-3.893 -3.856,-3.893 l 1.733,-2.803 -0.418,-0.751 -4.065,4.038 3.026,1.365 z m 9.209,0 1.245,0.763 -1.008,-2.43 -1.079,-0.706 z m -2.278,-1.608 1.206,0.722 -2.691,-7.497 -1.146,-0.719 z m -29.596,-9.092 2.136,0.812 -3.762,-6.944 -2.042,-0.915 z m -4.951,8.223 1.98,0.864 -8.186,-15.219 -2.058,-0.915 z m -9.594,-0.01 1.958,0.874 -8.264,-15.219 -2.058,-0.915 z m -16.772,0 1.962,0.878 -9.27,-17 -2.059,-0.913 z m 49.591,0.845 1.4,0.742 L 10.949,-0.875 9.46,-1.433 10.732,-1.495 9.105,-5.859 7.837,-6.52 Z"/></g>
<g transform="translate(290.7621,145.7704)"><path style="fill:#1c3060;fill-opacity:1;fill-rule:nonzero;stroke:none" d="m 0,0 9.875,0.002 10.436,-8.833 4.25,6.395 6.746,-0.008 -9.36,-17.051 z m 34.25,-2.444 -3.459,-6.095 7.496,0.002 -5.049,-9.169 h 6.481 l 8.395,15.262 z m 8.519,-15.259 h 6.671 l 8.251,15.262 -6.717,-0.001 z m 9.522,0 8.71,15.95 22.448,-19.666 h -9.733 l -11.282,10.098 -3.472,-6.382 z M 87.226,0.063 h 7.289 l -0.859,-2.395 -1.704,0.002 -2.365,-6.709 h -3.418 l 2.562,6.687 h -2.373 z m -7.104,-3.948 h 2.352 c 1.808,1.027 0.873,1.947 0.873,1.947 H 80.89 Z m -4.906,-5.154 3.223,9.102 h 6.862 c 0,0 1.266,-0.039 0.913,-2.509 -0.351,-2.485 -3.798,-3.369 -3.798,-3.369 l 2.019,-3.224 h -3.456 l -1.545,3.198 -1.192,-3.198 z m -5.844,4.582 c 0,-1.331 1.091,-2.412 2.44,-2.412 1.35,0 2.443,1.081 2.443,2.412 0,1.332 -1.093,2.414 -2.443,2.414 -1.349,0 -2.44,-1.082 -2.44,-2.414 m -2.26,0 c 0,2.567 2.103,4.647 4.7,4.647 2.597,0 4.704,-2.08 4.704,-4.647 0,-2.566 -2.107,-4.644 -4.704,-4.644 -2.597,0 -4.7,2.078 -4.7,4.644"/></g>
<g transform="translate(354.7606,152.8998)"><path style="fill:#1c3060;fill-opacity:1;fill-rule:nonzero;stroke:none" d="m 0,0 c 0,-3.371 -2.731,-6.104 -6.102,-6.104 -3.372,0 -6.105,2.733 -6.105,6.104 0,3.369 2.733,6.103 6.105,6.103 C -2.731,6.103 0,3.369 0,0"/></g>
<g transform="translate(351.9237,152.8794)"><path style="fill:#ffffff;fill-opacity:1;fill-rule:nonzero;stroke:none" d="m 0,0 c 0,-1.803 -1.462,-3.265 -3.265,-3.265 -1.804,0 -3.266,1.462 -3.266,3.265 0,1.805 1.462,3.266 3.266,3.266 C -1.462,3.266 0,1.805 0,0"/></g>
<g transform="translate(351.9237,152.8794)"><path style="fill:none;stroke:#1c3060;stroke-width:0.018" d="m 0,0 c 0,-1.803 -1.462,-3.265 -3.265,-3.265 -1.804,0 -3.266,1.462 -3.266,3.265 0,1.805 1.462,3.266 3.266,3.266 C -1.462,3.266 0,1.805 0,0 Z"/></g>
</g></g>
<path style="fill:#ffffff" d="m 348.34,155.697 h 0.636 v 0.739 h -0.636 z"/>
<path style="fill:#ffffff" d="m 348.34,149.361 h 0.636 v 0.738 h -0.636 z"/>
<path style="fill:#ffffff" d="m 345.12,152.581 h 0.738 v 0.636 h -0.738 z"/>
<path style="fill:#ffffff" d="m 351.457,152.581 h 0.741 v 0.636 h -0.741 z"/>
<g transform="translate(345.9312,155.1744)"><path style="fill:#ffffff" d="m 0,0 0.523,-0.521 0.45,0.451 -0.52,0.522 z"/></g>
<g transform="translate(350.4132,150.6942)"><path style="fill:#ffffff" d="M 0,0 0.521,-0.522 0.973,-0.071 0.449,0.451 Z"/></g>
<g transform="translate(345.9312,150.6231)"><path style="fill:#ffffff" d="m 0,0 0.453,-0.451 0.52,0.522 -0.45,0.451 z"/></g>
<g transform="translate(350.4114,155.1033)"><path style="fill:#ffffff" d="M 0,0 0.451,-0.451 0.975,0.071 0.523,0.522 Z"/></g>
<g transform="translate(345.2724,153.9711)"><path style="fill:#ffffff" d="M 0,0 0.681,-0.285 0.927,0.304 0.246,0.588 Z"/></g>
<g transform="translate(351.1161,151.5231)"><path style="fill:#ffffff" d="M 0,0 0.681,-0.285 0.928,0.303 0.247,0.588 Z"/></g>
<g transform="translate(346.9977,149.7582)"><path style="fill:#ffffff" d="M 0,0 0.588,-0.246 0.875,0.436 0.286,0.682 Z"/></g>
<g transform="translate(349.4457,155.6037)"><path style="fill:#ffffff" d="M 0,0 0.588,-0.246 0.873,0.434 0.285,0.681 Z"/></g>
<g transform="translate(345.2994,151.7463)"><path style="fill:#ffffff" d="M 0,0 0.257,-0.581 0.932,-0.282 0.673,0.3 Z"/></g>
<g transform="translate(351.0828,154.332)"><path style="fill:#ffffff" d="m 0,0 0.26,-0.582 0.674,0.3 -0.257,0.583 z"/></g>
<g transform="translate(349.5105,150.2136)"><path style="fill:#ffffff" d="M 0,0 0.3,-0.675 0.884,-0.415 0.581,0.26 Z"/></g>
<g transform="translate(346.9239,155.9988)"><path style="fill:#ffffff" d="m 0,0 0.302,-0.675 0.581,0.26 -0.301,0.673 z"/></g>
<g><g><g transform="translate(350.484,152.8998)"><path style="fill:#1c3060" d="m 0,0 c 0,-1.01 -0.817,-1.829 -1.825,-1.829 -1.009,0 -1.826,0.819 -1.826,1.829 0,1.007 0.817,1.825 1.826,1.825 C -0.817,1.825 0,1.007 0,0"/></g>
<g transform="translate(350.9904,152.8998)"><path style="fill:none;stroke:#1c3060;stroke-width:0.149" d="m 0,0 c 0,-1.29 -1.043,-2.335 -2.332,-2.335 -1.289,0 -2.333,1.045 -2.333,2.335 0,1.288 1.044,2.331 2.333,2.331 C -1.043,2.331 0,1.288 0,0 Z"/></g></g></g>
<path style="fill:#ffffff" d="m 347.319,148.546 h 0.454 v 3.488 h -0.454 z"/>
<path style="fill:none;stroke:#1c3060;stroke-width:0.038" d="m 347.773,148.546 h -0.454 v 3.487 h 0.454 z"/>
<g><g><g transform="translate(348.5511,151.3696)"><path style="fill:#ffffff" d="m 0,0 c 0.009,-0.077 0,-0.313 0,-0.313 v -2.51 h -0.456 v 3.487 l 0.373,-0.346 c 0,0 0.072,-0.236 0.083,-0.318"/></g>
<g transform="translate(348.5511,151.3696)"><path style="fill:none;stroke:#1c3060;stroke-width:0.038" d="m 0,0 c 0.009,-0.077 0,-0.313 0,-0.313 v -2.51 h -0.456 v 3.487 l 0.373,-0.346 c 0,0 0.072,-0.236 0.083,-0.318 z"/></g></g></g>
<path style="fill:#ffffff" d="m 349.311,148.542 h 0.454 v 5.33 h -0.454 z"/>
<path style="fill:none;stroke:#1c3060;stroke-width:0.038" d="m 349.765,148.543 h -0.455 v 5.329 h 0.455 z"/>
<g><g><g transform="translate(348.5573,152.01)"><path style="fill:#ffffff" d="m 0,0 c 0,-0.343 -0.279,-0.621 -0.622,-0.621 -0.345,0 -0.622,0.278 -0.622,0.621 v 1.557 c 0,0.342 0.277,0.308 0.622,0.308 C -0.279,1.865 0,1.899 0,1.557 Z"/></g>
<g transform="translate(348.205,152.1844)"><path style="fill:#1c3060" d="m 0,0 c 0,-0.146 -0.115,-0.26 -0.259,-0.26 -0.143,0 -0.26,0.114 -0.26,0.26 v 0.875 c 0,0.144 0.117,0.261 0.26,0.261 C -0.115,1.136 0,1.019 0,0.875 Z"/></g></g></g>
<path style="fill:#ffffff" d="m 348.921,153.45 h 1.17 v 0.454 h -1.17 z"/>
<g id="text588" style="font-style:normal;font-weight:bold;font-size:6.11999989px;font-family:Spacer;fill:#00aeef" transform="matrix(1,0,0,-1,282.0848,105.1126)" aria-label="Colleges &amp; Schools for Advanced Technologies &amp; Sciences">
</g>
<g id="text584" style="font-style:normal;font-weight:bold;font-size:7.34399986px;font-family:Spacer;fill:#41ad49" transform="matrix(1,0,0,-1,277.1661,111.6249)">
</g>
</g>
</g>
</svg>
