<svg xmlns="http://www.w3.org/2000/svg" viewBox="0 0 360 200" width="360" height="200">
  <defs>
    <!-- Gradient for left circle -->
    <radialGradient id="leftCircle" cx="40%" cy="40%" r="60%">
      <stop offset="0%" stop-color="#a8c8f0"/>
      <stop offset="50%" stop-color="#7babd4"/>
      <stop offset="100%" stop-color="#5a93c0"/>
    </radialGradient>

    <!-- Gradient for right circle -->
    <radialGradient id="rightCircle" cx="60%" cy="40%" r="60%">
      <stop offset="0%" stop-color="#a8e6cf"/>
      <stop offset="50%" stop-color="#7dd4ac"/>
      <stop offset="100%" stop-color="#5abf92"/>
    </radialGradient>

    <!-- Overlap blend gradient -->
    <linearGradient id="overlapGrad" x1="0%" y1="0%" x2="100%" y2="100%">
      <stop offset="0%" stop-color="#7babd4" stop-opacity="0.6"/>
      <stop offset="100%" stop-color="#7dd4ac" stop-opacity="0.6"/>
    </linearGradient>

    <!-- Subtle shadow -->
    <filter id="softShadow" x="-20%" y="-20%" width="140%" height="140%">
      <feDropShadow dx="0" dy="3" stdDeviation="6" flood-color="#1e3a5f40"/>
    </filter>

    <!-- Glow for text -->
    <filter id="textGlow">
      <feGaussianBlur in="SourceAlpha" stdDeviation="1.5" result="blur"/>
      <feFlood flood-color="#ffffff" flood-opacity="0.5" result="color"/>
      <feComposite in="color" in2="blur" operator="in" result="glow"/>
      <feMerge>
        <feMergeNode in="glow"/>
        <feMergeNode in="SourceGraphic"/>
      </feMerge>
    </filter>

    <!-- Lavender star glow -->
    <radialGradient id="starGlow" cx="50%" cy="50%" r="50%">
      <stop offset="0%" stop-color="#9b7ed8" stop-opacity="0.3"/>
      <stop offset="60%" stop-color="#9b7ed8" stop-opacity="0.06"/>
      <stop offset="100%" stop-color="#9b7ed8" stop-opacity="0"/>
    </radialGradient>

    <!-- Clip path for overlap effect -->
    <clipPath id="clipRight">
      <circle cx="218" cy="78" r="72"/>
    </clipPath>
  </defs>

  <!-- Left circle -->
  <circle cx="142" cy="78" r="72" fill="url(#leftCircle)" opacity="0.8" filter="url(#softShadow)"/>

  <!-- Right circle -->
  <circle cx="218" cy="78" r="72" fill="url(#rightCircle)" opacity="0.8" filter="url(#softShadow)"/>

  <!-- Overlap area -->
  <circle cx="142" cy="78" r="72" fill="url(#overlapGrad)" clip-path="url(#clipRight)" opacity="0.5"/>

  <!-- Decorative ring accents -->
  <circle cx="142" cy="78" r="72" fill="none" stroke="#ffffff" stroke-width="1.5" opacity="0.35"/>
  <circle cx="218" cy="78" r="72" fill="none" stroke="#ffffff" stroke-width="1.5" opacity="0.35"/>

  <!-- Small decorative dots -->
  <circle cx="100" cy="28" r="2.5" fill="#ffffff" opacity="0.5"/>
  <circle cx="260" cy="28" r="2.5" fill="#ffffff" opacity="0.5"/>
  <circle cx="180" cy="14" r="2" fill="#ffffff" opacity="0.4"/>

  <!-- Lavender star accent — main -->
  <g opacity="0.85">
    <circle cx="180" cy="10" r="14" fill="url(#starGlow)"/>
    <path d="M180 2 L181.5 8 L188 10 L181.5 12 L180 18 L178.5 12 L172 10 L178.5 8 Z" fill="#9b7ed8"/>
    <path d="M180 4.5 L181 8.5 L185 10 L181 11.5 L180 15.5 L179 11.5 L175 10 L179 8.5 Z" fill="#c4b5e0" opacity="0.5" transform="rotate(45,180,10)"/>
    <circle cx="180" cy="10" r="1.2" fill="#fff" opacity="0.95"/>
  </g>
  <!-- Small lavender accent stars -->
  <g opacity="0.45">
    <path d="M82 62 L83.5 65 L86.5 66.5 L83.5 68 L82 71 L80.5 68 L77.5 66.5 L80.5 65 Z" fill="#c4b5e0"/>
    <path d="M278 55 L279.5 58 L282.5 59.5 L279.5 61 L278 64 L276.5 61 L273.5 59.5 L276.5 58 Z" fill="#c4b5e0"/>
  </g>

  <!-- Main text: Learni -->
  <text x="180" y="90" text-anchor="middle" font-family="'Caveat', 'Segoe UI', cursive" font-size="48" font-weight="700" fill="#1e3a5f" letter-spacing="1" filter="url(#textGlow)">Learni</text>

  <!-- Subtitle - Hebrew -->
  <text x="180" y="172" text-anchor="middle" font-family="'Heebo', 'Segoe UI', sans-serif" font-size="15" font-weight="400" fill="#4a6a8a" letter-spacing="1.5" opacity="0.9" direction="rtl">חינוך · בינה מלאכותית · הגשמת חלומות</text>

  <!-- Decorative line under subtitle -->
  <line x1="100" y1="184" x2="260" y2="184" stroke="url(#overlapGrad)" stroke-width="2" stroke-linecap="round" opacity="0.6"/>
</svg>