<svg xmlns="http://www.w3.org/2000/svg" viewBox="0 0 500 500" width="500" height="500">
  <defs>
    <radialGradient id="leftCircle" cx="40%" cy="40%" r="60%">
      <stop offset="0%" stop-color="#a8c8f0"/>
      <stop offset="50%" stop-color="#7babd4"/>
      <stop offset="100%" stop-color="#5a93c0"/>
    </radialGradient>
    <radialGradient id="rightCircle" cx="60%" cy="40%" r="60%">
      <stop offset="0%" stop-color="#a8e6cf"/>
      <stop offset="50%" stop-color="#7dd4ac"/>
      <stop offset="100%" stop-color="#5abf92"/>
    </radialGradient>
    <linearGradient id="overlapGrad" x1="0%" y1="0%" x2="100%" y2="100%">
      <stop offset="0%" stop-color="#7babd4" stop-opacity="0.6"/>
      <stop offset="100%" stop-color="#7dd4ac" stop-opacity="0.6"/>
    </linearGradient>
    <filter id="softShadow" x="-20%" y="-20%" width="140%" height="140%">
      <feDropShadow dx="0" dy="3" stdDeviation="6" flood-color="#2c3e5060"/>
    </filter>
    <filter id="textGlow">
      <feGaussianBlur in="SourceAlpha" stdDeviation="2" result="blur"/>
      <feFlood flood-color="#ffffff" flood-opacity="0.5" result="color"/>
      <feComposite in="color" in2="blur" operator="in" result="glow"/>
      <feMerge><feMergeNode in="glow"/><feMergeNode in="SourceGraphic"/></feMerge>
    </filter>
    <radialGradient id="starGlow" cx="50%" cy="50%" r="50%">
      <stop offset="0%" stop-color="#9b7ed8" stop-opacity="0.3"/>
      <stop offset="60%" stop-color="#9b7ed8" stop-opacity="0.06"/>
      <stop offset="100%" stop-color="#9b7ed8" stop-opacity="0"/>
    </radialGradient>
    <clipPath id="clipRight"><circle cx="290" cy="200" r="100"/></clipPath>
  </defs>

  <rect width="500" height="500" fill="white"/>

  <circle cx="210" cy="200" r="100" fill="url(#leftCircle)" opacity="0.75" filter="url(#softShadow)"/>
  <circle cx="290" cy="200" r="100" fill="url(#rightCircle)" opacity="0.75" filter="url(#softShadow)"/>
  <circle cx="210" cy="200" r="100" fill="url(#overlapGrad)" clip-path="url(#clipRight)" opacity="0.5"/>
  <circle cx="210" cy="200" r="100" fill="none" stroke="#fff" stroke-width="1.5" opacity="0.3"/>
  <circle cx="290" cy="200" r="100" fill="none" stroke="#fff" stroke-width="1.5" opacity="0.3"/>

  <circle cx="155" cy="140" r="3" fill="#fff" opacity="0.5"/>
  <circle cx="345" cy="140" r="3" fill="#fff" opacity="0.5"/>

  <!-- Lavender stars -->
  <g opacity="0.85">
    <circle cx="250" cy="82" r="16" fill="url(#starGlow)"/>
    <path d="M250 72 L251.8 80 L260 82 L251.8 84 L250 92 L248.2 84 L240 82 L248.2 80 Z" fill="#9b7ed8"/>
    <path d="M250 75 L251.2 80 L256 82 L251.2 84 L250 89 L248.8 84 L244 82 L248.8 80 Z" fill="#c4b5e0" opacity="0.5" transform="rotate(45,250,82)"/>
    <circle cx="250" cy="82" r="1.5" fill="#fff" opacity="0.95"/>
  </g>
  <g opacity="0.45">
    <path d="M140 155 L142 159 L146 161 L142 163 L140 167 L138 163 L134 161 L138 159 Z" fill="#c4b5e0"/>
    <path d="M360 145 L362 149 L366 151 L362 153 L360 157 L358 153 L354 151 L358 149 Z" fill="#c4b5e0"/>
  </g>

  <text x="250" y="215" text-anchor="middle" font-family="'Caveat', 'Segoe UI', cursive" font-size="52" font-weight="700" fill="#1e3a5f" letter-spacing="1" filter="url(#textGlow)">Learni</text>

  <text x="250" y="350" text-anchor="middle" font-family="'Heebo', 'Segoe UI', sans-serif" font-size="18" font-weight="400" fill="#4a6a8a" letter-spacing="1" opacity="0.85" direction="rtl">חינוך · בינה מלאכותית · הגשמת חלומות</text>

  <line x1="145" y1="365" x2="355" y2="365" stroke="url(#overlapGrad)" stroke-width="2" stroke-linecap="round" opacity="0.6"/>
</svg>